<svg viewBox="0 0 500 500" xmlns="http://www.w3.org/2000/svg">
  <!-- Background -->
  <rect width="500" height="500" fill="#FFFFFF"/>
  
  <!-- Decorative accent circles -->
  <circle cx="60" cy="80" r="30" fill="#FED12E" opacity="0.8" />
  <circle cx="440" cy="440" r="40" fill="#FEB3D2" opacity="0.8"/>
  <circle cx="100" cy="460" r="25" fill="#00594C" opacity="0.8"/>
  <circle cx="420" cy="100" r="20" fill="#FEB3D2" opacity="0.8"/>
  
  <!-- Centered large people icon -->
  <g transform="translate(100,100) scale(3.5)">
    <path opacity="0.4" d="M32.0199 18.5435C34.5733 18.5435 35.0666 18.0202 39.9999 18.0202C44.9333 18.0202 45.4266 18.5435 47.9799 18.5435C50.1066 18.5435 56.4933 13.3335 59.6833 13.3335C62.8733 13.3335 66.5999 15.2102 66.5999 20.6268V26.8768C66.5933 28.5168 65.9999 33.5435 63.6666 32.2002C67.3699 36.5802 66.5999 41.9402 66.5999 46.6668C66.5999 59.6868 49.0433 63.3335 39.9999 63.3335C30.9566 63.3335 13.3999 59.6868 13.3999 46.6668C13.3999 41.9402 12.6299 36.5802 16.3333 32.2002C13.9999 33.5435 13.4066 28.5168 13.3999 26.8735V20.6268C13.3999 15.2102 17.1233 13.3335 20.3166 13.3335C23.5066 13.3335 29.8933 18.5435 32.0199 18.5435Z" fill="#00594C"/>
    <path d="M30.0534 36.8769C28.4234 36.8769 27.3367 37.9335 26.7867 38.8202C26.2173 39.7748 25.9241 40.8688 25.9401 41.9802C25.9401 43.0869 26.2134 44.2135 26.7867 45.1369C27.3367 46.0235 28.4234 47.0835 30.0534 47.0835C31.6867 47.0835 32.7701 46.0235 33.3201 45.1369C33.8934 44.2102 34.1667 43.0869 34.1667 41.9802C34.1667 40.8702 33.8934 39.7469 33.3201 38.8202C32.7701 37.9335 31.6867 36.8769 30.0534 36.8769ZM46.7901 38.8202C47.3367 37.9335 48.4234 36.8735 50.0567 36.8735C51.6834 36.8735 52.7701 37.9335 53.3201 38.8202C53.8934 39.7469 54.1667 40.8702 54.1667 41.9802C54.1667 43.0902 53.8934 44.2135 53.3201 45.1369C52.7701 46.0235 51.6867 47.0835 50.0534 47.0835C48.4234 47.0835 47.3367 46.0235 46.7867 45.1369C46.2179 44.1833 45.9248 43.0905 45.9401 41.9802C45.9401 40.8702 46.2134 39.7469 46.7901 38.8202Z" fill="#00594C"/>
    <path fill-rule="evenodd" clip-rule="evenodd" d="M37.2598 46.9331C38.1583 46.6081 39.1077 46.4467 40.0631 46.4565C41.0365 46.4565 42.0298 46.6065 42.8698 46.9331C43.3695 47.1194 43.8306 47.3962 44.2298 47.7498C44.6765 48.1598 45.2531 48.9165 45.2531 49.9998C45.248 50.4253 45.1544 50.8451 44.9782 51.2325C44.802 51.6198 44.5471 51.9663 44.2298 52.2498C43.8306 52.6034 43.3695 52.8803 42.8698 53.0665C42.0265 53.3931 41.0365 53.5431 40.0631 53.5431C39.0965 53.5431 38.1031 53.3931 37.2631 53.0665C36.761 52.881 36.2977 52.6041 35.8965 52.2498C35.5797 51.966 35.3255 51.6194 35.1499 51.2321C34.9743 50.8447 34.8812 50.4251 34.8765 49.9998C34.8765 48.9165 35.4531 48.1598 35.8998 47.7498C36.299 47.3962 36.7601 47.1194 37.2598 46.9331Z" fill="#00594C"/>
    <path d="M59.5433 44.5835C59.5433 43.9205 59.8067 43.2846 60.2755 42.8157C60.7444 42.3469 61.3803 42.0835 62.0433 42.0835C63.03 42.0835 64.21 42.3068 65.3133 42.5802C66.4633 42.8635 67.7133 43.2435 68.9 43.6502C71.18 44.4302 73.6 45.4235 74.69 46.1302C75.2288 46.4974 75.6029 47.0607 75.7323 47.6999C75.8617 48.339 75.7362 49.0035 75.3826 49.5514C75.0291 50.0994 74.4754 50.4875 73.8397 50.633C73.204 50.7785 72.5367 50.6698 71.98 50.3302C71.4566 49.9935 69.5733 49.1635 67.2833 48.3802C66.2412 48.0211 65.1848 47.7053 64.1166 47.4335C63.4397 47.2443 62.7448 47.127 62.0433 47.0835C61.3803 47.0835 60.7444 46.8201 60.2755 46.3513C59.8067 45.8824 59.5433 45.2465 59.5433 44.5835ZM59.8933 50.4168C59.2303 50.4168 58.5944 50.6802 58.1255 51.1491C57.6567 51.6179 57.3933 52.2538 57.3933 52.9168C57.3933 53.5799 57.6567 54.2158 58.1255 54.6846C58.5944 55.1534 59.2303 55.4168 59.8933 55.4168C60.58 55.4168 61.7266 55.8002 63.16 56.5602C64.3 57.1602 65.3466 57.8435 66.1633 58.3768L66.6 58.6635C67.1569 59.0233 67.834 59.1471 68.4822 59.0077C69.1305 58.8683 69.6968 58.4771 70.0566 57.9202C70.4164 57.3632 70.5403 56.6861 70.4009 56.0379C70.2615 55.3896 69.8702 54.8233 69.3133 54.4635L68.9366 54.2168C67.8227 53.4718 66.6748 52.7788 65.4966 52.1402C63.9733 51.3335 61.8966 50.4168 59.8933 50.4168ZM12.7166 48.3802C10.4266 49.1635 8.54329 49.9935 8.02329 50.3302C7.46633 50.69 6.78926 50.8138 6.14101 50.6744C5.49276 50.535 4.92643 50.1438 4.56662 49.5868C4.20681 49.0299 4.08299 48.3528 4.22239 47.7045C4.36179 47.0563 4.753 46.49 5.30996 46.1302C6.40329 45.4235 8.81996 44.4302 11.1 43.6502C12.29 43.2435 13.54 42.8602 14.69 42.5802C15.79 42.3068 16.97 42.0835 17.9566 42.0835C18.6197 42.0835 19.2555 42.3469 19.7244 42.8157C20.1932 43.2846 20.4566 43.9205 20.4566 44.5835C20.4566 45.2465 20.1932 45.8824 19.7244 46.3513C19.2555 46.8201 18.6197 47.0835 17.9566 47.0835C17.6 47.0835 16.9 47.1835 15.8833 47.4335C14.9166 47.6735 13.8133 48.0068 12.7166 48.3802ZM13.4 58.6635L13.8366 58.3768C14.6566 57.8435 15.7033 57.1602 16.84 56.5602C18.2766 55.8002 19.4233 55.4168 20.1066 55.4168C20.7697 55.4168 21.4055 55.1534 21.8744 54.6846C22.3432 54.2158 22.6066 53.5799 22.6066 52.9168C22.6066 52.2538 22.3432 51.6179 21.8744 51.1491C21.4055 50.6802 20.7697 50.4168 20.1066 50.4168C18.1066 50.4168 16.0266 51.3335 14.5066 52.1402C13.14 52.8602 11.8733 53.6902 11.0633 54.2168L10.6866 54.4635C10.1297 54.8233 9.73846 55.3896 9.59906 56.0379C9.45965 56.6861 9.58348 57.3632 9.94329 57.9202C10.3031 58.4771 10.8694 58.8683 11.5177 59.0077C12.1659 59.1471 12.843 59.0233 13.4 58.6635Z" fill="#00594C"/>
  </g>
</svg>
