<svg viewBox="0 0 500 500" xmlns="http://www.w3.org/2000/svg">
  <!-- Background -->
  <rect width="500" height="500" fill="#FFFFFF"/>
  
  <!-- Decorative accent circles -->
  <circle cx="60" cy="80" r="30" fill="#FED12E" opacity="0.8" />
  <circle cx="440" cy="440" r="40" fill="#FEB3D2" opacity="0.8"/>
  <circle cx="100" cy="460" r="25" fill="#00594C" opacity="0.8"/>
  <circle cx="420" cy="100" r="20" fill="#FEB3D2" opacity="0.8"/>
  
  <!-- Centered large people icon -->
<g opacity="0.2" transform="translate(100,100) scale(3)">
<path d="M38.8711 20.1747C54.0711 24.2467 63.2911 39.2626 59.4111 53.7547C55.0351 70.0746 34.2191 83.1306 23.8831 71.9946C20.5911 68.4506 19.7431 64.5547 20.3231 59.3547C20.4231 58.4547 20.5071 57.8666 20.7751 56.1786C21.4231 52.0507 21.4151 50.4187 20.5591 49.0267C19.7311 47.6827 18.2471 47.3347 13.8471 47.2826L13.4151 47.2747C7.22305 47.1867 4.21505 46.1547 2.68705 41.8227C-2.39295 27.4667 21.8031 15.5987 38.8711 20.1747Z" fill="#00594C"/>
<path fill-rule="evenodd" clip-rule="evenodd" d="M51.0225 17.1389C48.9745 17.0589 47.0945 15.7869 45.7985 13.3549C43.5705 9.16287 43.0825 3.08688 46.2425 1.40688C49.4025 -0.273125 54.1625 3.52688 56.3945 7.72288C57.5945 9.98287 57.6825 12.1069 56.8225 13.7949C57.6021 14.1884 58.2314 14.8262 58.6145 15.6109L74.9865 49.2109C75.2599 49.8148 75.293 50.5002 75.0791 51.1277C74.8652 51.7552 74.4204 52.2777 73.8351 52.5889C73.2497 52.9002 72.5678 52.9769 71.928 52.8034C71.2882 52.6298 70.7384 52.2192 70.3905 51.6549L51.5585 19.3749C51.1649 18.6981 50.9785 17.9206 51.0225 17.1389Z" fill="#00594C"/>
</g>
<g transform="translate(100,100) scale(3)">
<path d="M19 37.9999C17.6739 37.9999 16.4021 37.4732 15.4645 36.5355C14.5268 35.5978 14 34.326 14 32.9999C14 31.6739 14.5268 30.4021 15.4645 29.4644C16.4021 28.5267 17.6739 27.9999 19 27.9999C20.3261 27.9999 21.5979 28.5267 22.5355 29.4644C23.4732 30.4021 24 31.6739 24 32.9999C24 34.326 23.4732 35.5978 22.5355 36.5355C21.5979 37.4732 20.3261 37.9999 19 37.9999ZM35 37.9999C33.6739 37.9999 32.4021 37.4732 31.4645 36.5355C30.5268 35.5978 30 34.326 30 32.9999C30 31.6739 30.5268 30.4021 31.4645 29.4644C32.4021 28.5267 33.6739 27.9999 35 27.9999C36.3261 27.9999 37.5979 28.5267 38.5355 29.4644C39.4732 30.4021 40 31.6739 40 32.9999C40 34.326 39.4732 35.5978 38.5355 36.5355C37.5979 37.4732 36.3261 37.9999 35 37.9999ZM45 49.9999C43.6739 49.9999 42.4021 49.4732 41.4645 48.5355C40.5268 47.5978 40 46.326 40 44.9999C40 43.6739 40.5268 42.4021 41.4645 41.4644C42.4021 40.5267 43.6739 39.9999 45 39.9999C46.3261 39.9999 47.5979 40.5267 48.5355 41.4644C49.4732 42.4021 50 43.6739 50 44.9999C50 46.326 49.4732 47.5978 48.5355 48.5355C47.5979 49.4732 46.3261 49.9999 45 49.9999ZM39 63.9999C37.6739 63.9999 36.4021 63.4732 35.4645 62.5355C34.5268 61.5978 34 60.326 34 58.9999C34 57.6739 34.5268 56.4021 35.4645 55.4644C36.4021 54.5267 37.6739 53.9999 39 53.9999C40.3261 53.9999 41.5979 54.5267 42.5355 55.4644C43.4732 56.4021 44 57.6739 44 58.9999C44 60.326 43.4732 61.5978 42.5355 62.5355C41.5979 63.4732 40.3261 63.9999 39 63.9999ZM53.48 14.4199C53.9543 14.1658 54.475 14.01 55.0109 13.9619C55.5468 13.9137 56.0869 13.9741 56.5989 14.1396C57.1109 14.305 57.5842 14.572 57.9906 14.9247C58.397 15.2773 58.7281 15.7084 58.964 16.1919L75.336 49.7919C75.6094 50.3959 75.6424 51.0813 75.4286 51.7088C75.2147 52.3363 74.7698 52.8587 74.1845 53.17C73.5992 53.4813 72.9173 53.5579 72.2775 53.3844C71.6376 53.2109 71.0879 52.8003 70.74 52.2359L51.908 19.9559C51.6384 19.4913 51.4652 18.9771 51.3986 18.4441C51.3321 17.911 51.3736 17.37 51.5207 16.8534C51.6678 16.3367 51.9174 15.855 52.2547 15.4369C52.592 15.0188 53.0101 14.6729 53.484 14.4199" fill="#00594C"/>
</g>
</svg>