<svg viewBox="0 0 500 500" xmlns="http://www.w3.org/2000/svg">
  <!-- Background -->
  <rect width="500" height="500" fill="#FFFFFF"/>
  
  <!-- Decorative accent circles -->
  <circle cx="60" cy="80" r="30" fill="#FED12E" opacity="0.8" />
  <circle cx="440" cy="440" r="40" fill="#FEB3D2" opacity="0.8"/>
  <circle cx="100" cy="460" r="25" fill="#00594C" opacity="0.8"/>
  <circle cx="420" cy="100" r="20" fill="#FEB3D2" opacity="0.8"/>
  
  <!-- Centered large people icon -->
  <g transform="translate(100,100) scale(3)">
    <path d="M48.3332 73.3035V61.6668C48.3332 58.5502 48.3332 56.9935 47.6632 55.8335C47.2243 55.0735 46.5932 54.4423 45.8332 54.0035C44.6732 53.3335 43.1165 53.3335 39.9998 53.3335C36.8832 53.3335 35.3265 53.3335 34.1665 54.0035C33.4065 54.4423 32.7753 55.0735 32.3365 55.8335C31.6665 56.9935 31.6665 58.5502 31.6665 61.6668V73.3035H48.3332Z" fill="#00594C"/>
    <path opacity="0.4" fill-rule="evenodd" clip-rule="evenodd" d="M19.1065 40.0001C16.1398 40.0001 13.5098 38.7468 11.6665 36.7768V46.6668C11.6665 59.2368 11.6665 65.5235 15.5732 69.4268C18.7165 72.5735 23.3998 73.1835 31.6665 73.3035H48.3332C56.5998 73.1835 61.2832 72.5701 64.4265 69.4268C68.3332 65.5235 68.3332 59.2368 68.3332 46.6668V36.7801C66.9929 38.2069 65.2704 39.2179 63.3713 39.6925C61.4721 40.167 59.4765 40.085 57.6227 39.4563C55.7688 38.8276 54.1351 37.6787 52.9164 36.1467C51.6977 34.6148 50.9456 32.7645 50.7498 30.8168L50.5065 28.3901C50.6504 29.8513 50.488 31.3264 50.0296 32.7213C49.5711 34.1161 48.8268 35.4 47.8441 36.4908C46.8613 37.5817 45.6619 38.4556 44.3223 39.0566C42.9827 39.6577 41.5325 39.9727 40.0643 39.9816C38.5961 39.9904 37.1422 39.6929 35.7955 39.108C34.4487 38.5231 33.2388 37.6638 32.243 36.5848C31.2472 35.5059 30.4875 34.2311 30.0123 32.8419C29.537 31.4527 29.3568 29.9796 29.4832 28.5168L29.2532 30.8168C29.0011 33.333 27.8234 35.6658 25.9485 37.3627C24.0736 39.0596 21.6353 39.9995 19.1065 40.0001ZM48.3332 61.6668V73.3035H31.6665V61.6668C31.6665 58.5501 31.6665 56.9935 32.3365 55.8335C32.7753 55.0734 33.4065 54.4423 34.1665 54.0035C35.3265 53.3335 36.8832 53.3335 39.9998 53.3335C43.1165 53.3335 44.6732 53.3335 45.8332 54.0035C46.5932 54.4423 47.2243 55.0734 47.6632 55.8335C48.3332 56.9935 48.3332 58.5501 48.3332 61.6668Z" fill="#00594C"/>
    <path d="M31.6667 6.6665H48.3334L50.5067 28.3898C50.6499 29.8557 50.4847 31.3353 50.0219 32.7336C49.559 34.1318 48.8087 35.4177 47.8191 36.5087C46.8296 37.5996 45.6227 38.4714 44.2761 39.068C42.9295 39.6645 41.4729 39.9727 40 39.9727C38.5272 39.9727 37.0706 39.6645 35.724 39.068C34.3774 38.4714 33.1705 37.5996 32.1809 36.5087C31.1914 35.4177 30.441 34.1318 29.9782 32.7336C29.5153 31.3353 29.3502 29.8557 29.4934 28.3898L31.6667 6.6665Z" fill="#00594C"/>
    <path opacity="0.6" d="M11.1002 17.8365C11.6935 14.8698 11.9902 13.3865 12.5935 12.1832C13.2225 10.9296 14.1082 9.82239 15.193 8.93342C16.2778 8.04445 17.5374 7.39361 18.8902 7.02317C20.1902 6.6665 21.7002 6.6665 24.7268 6.6665H31.6702L29.2535 30.8165C29.1222 32.1957 28.7112 33.5337 28.0458 34.7489C27.3803 35.964 26.4743 37.0309 25.383 37.8844C24.2916 38.7379 23.0378 39.3601 21.6981 39.7131C20.3584 40.066 18.9608 40.1424 17.5906 39.9374C16.2204 39.7325 14.9063 39.2506 13.7285 38.521C12.5507 37.7915 11.5338 36.8297 10.7399 35.6942C9.94608 34.5588 9.39186 33.2735 9.11108 31.9168C8.8303 30.5601 8.82885 29.1604 9.10682 27.8032L11.1002 17.8365ZM68.9002 17.8365C68.3068 14.8698 68.0102 13.3865 67.4068 12.1832C66.7782 10.93 65.893 9.82296 64.8088 8.93401C63.7246 8.04505 62.4656 7.39402 61.1135 7.02317C59.8135 6.6665 58.3002 6.6665 55.2735 6.6665H48.3335L50.7502 30.8165C50.8777 32.1986 51.286 33.5401 51.95 34.759C52.614 35.9778 53.5198 37.0483 54.6119 37.9049C55.7039 38.7615 56.9594 39.3862 58.3013 39.7408C59.6432 40.0954 61.0434 40.1723 62.4161 39.967C63.7888 39.7617 65.1051 39.2783 66.2845 38.5466C67.4639 37.8148 68.4816 36.8501 69.2752 35.7113C70.0688 34.5726 70.6217 33.2839 70.8999 31.9242C71.1782 30.5644 71.176 29.1621 70.8935 27.8032L68.9002 17.8365Z" fill="#00594C"/>
  </g>
</svg>