<svg viewBox="0 0 500 500" xmlns="http://www.w3.org/2000/svg">
  <!-- Background -->
  <rect width="500" height="500" fill="#FFFFFF"/>
  
  <!-- Decorative accent circles -->
  <circle cx="60" cy="80" r="30" fill="#FED12E" opacity="0.8" />
  <circle cx="440" cy="440" r="40" fill="#FEB3D2" opacity="0.8"/>
  <circle cx="100" cy="460" r="25" fill="#00594C" opacity="0.8"/>
  <circle cx="420" cy="100" r="20" fill="#FEB3D2" opacity="0.8"/>
  
  <!-- Centered large people icon -->
  <g transform="translate(100,100) scale(3.5)">
    <path d="M51.6668 25.0002C51.6668 26.5323 51.3651 28.0493 50.7788 29.4648C50.1925 30.8803 49.3331 32.1664 48.2497 33.2497C47.1664 34.3331 45.8803 35.1925 44.4648 35.7788C43.0493 36.3651 41.5323 36.6668 40.0002 36.6668C38.4681 36.6668 36.951 36.3651 35.5355 35.7788C34.1201 35.1925 32.8339 34.3331 31.7506 33.2497C30.6672 32.1664 29.8079 30.8803 29.2216 29.4648C28.6353 28.0493 28.3335 26.5323 28.3335 25.0002C28.3335 21.906 29.5627 18.9385 31.7506 16.7506C33.9385 14.5627 36.906 13.3335 40.0002 13.3335C43.0944 13.3335 46.0618 14.5627 48.2497 16.7506C50.4377 18.9385 51.6668 21.906 51.6668 25.0002Z" fill="#00594C"/>
    <path opacity="0.4" d="M65 24.9998C65 27.21 64.122 29.3296 62.5592 30.8924C60.9964 32.4552 58.8768 33.3332 56.6667 33.3332C54.4565 33.3332 52.3369 32.4552 50.7741 30.8924C49.2113 29.3296 48.3333 27.21 48.3333 24.9998C48.3333 22.7897 49.2113 20.6701 50.7741 19.1073C52.3369 17.5445 54.4565 16.6665 56.6667 16.6665C58.8768 16.6665 60.9964 17.5445 62.5592 19.1073C64.122 20.6701 65 22.7897 65 24.9998ZM15 24.9998C15 27.21 15.878 29.3296 17.4408 30.8924C19.0036 32.4552 21.1232 33.3332 23.3333 33.3332C25.5435 33.3332 27.6631 32.4552 29.2259 30.8924C30.7887 29.3296 31.6667 27.21 31.6667 24.9998C31.6667 22.7897 30.7887 20.6701 29.2259 19.1073C27.6631 17.5445 25.5435 16.6665 23.3333 16.6665C21.1232 16.6665 19.0036 17.5445 17.4408 19.1073C15.878 20.6701 15 22.7897 15 24.9998Z" fill="#00594C"/>
    <path d="M60 55.0002C60 61.4435 51.0467 66.6668 40 66.6668C28.9533 66.6668 20 61.4435 20 55.0002C20 48.5568 28.9533 43.3335 40 43.3335C51.0467 43.3335 60 48.5568 60 55.0002Z" fill="#00594C"/>
    <path opacity="0.4" d="M73.3332 54.9998C73.3332 59.5998 67.3665 63.3332 59.9998 63.3332C52.6332 63.3332 46.6665 59.5998 46.6665 54.9998C46.6665 50.3998 52.6332 46.6665 59.9998 46.6665C67.3665 46.6665 73.3332 50.3998 73.3332 54.9998ZM6.6665 54.9998C6.6665 59.5998 12.6332 63.3332 19.9998 63.3332C27.3665 63.3332 33.3332 59.5998 33.3332 54.9998C33.3332 50.3998 27.3665 46.6665 19.9998 46.6665C12.6332 46.6665 6.6665 50.3998 6.6665 54.9998Z" fill="#00594C"/>
  </g>
</svg>