<svg viewBox="0 0 500 500" xmlns="http://www.w3.org/2000/svg">
  <!-- Background -->
  <rect width="500" height="500" fill="#FFFFFF"/>
  
  <!-- Decorative accent circles -->
  <circle cx="60" cy="80" r="30" fill="#FED12E" opacity="0.8" />
  <circle cx="440" cy="440" r="40" fill="#FEB3D2" opacity="0.8"/>
  <circle cx="100" cy="460" r="25" fill="#00594C" opacity="0.8"/>
  <circle cx="420" cy="100" r="20" fill="#FEB3D2" opacity="0.8"/>
  
  <!-- Centered large people icon -->
  <g transform="translate(100,100) scale(3)">
    <path opacity="0.4" d="M15.7568 9.10984C16.7768 8.08317 18.2035 7.4165 20.9035 7.04984C23.6835 6.67317 27.3635 6.6665 32.6435 6.6665H47.3568C52.6368 6.6665 56.3168 6.67317 59.0968 7.04984C61.7968 7.4165 63.2235 8.08317 64.2435 9.10984C65.2602 10.1365 65.9235 11.5765 66.2868 14.2998C66.6602 17.0998 66.6668 20.8165 66.6668 26.1398V59.9998H24.7535C21.1402 59.9998 19.8802 60.0198 18.9102 60.2265C17.2002 60.5932 15.7102 61.3832 14.6268 62.4498C14.2602 62.8098 14.0802 62.9865 13.6568 64.1332C13.4568 64.6204 13.3472 65.14 13.3335 65.6665V26.1398C13.3335 20.8165 13.3402 17.1032 13.7135 14.2998C14.0768 11.5798 14.7402 10.1365 15.7568 9.10984Z" fill="#00594C"/>
    <path d="M66.6666 60.0002H24.7533C21.1399 60.0002 19.8799 60.0202 18.9099 60.2268C17.1999 60.5935 15.7099 61.3835 14.6266 62.4502C14.2599 62.8102 14.0799 62.9868 13.6566 64.1335C13.2333 65.2802 13.2999 65.7635 13.4366 66.7335L13.5099 67.2335C13.8766 69.4102 14.5433 70.5602 15.5633 71.3802C16.5866 72.2002 18.0199 72.7368 20.7299 73.0268C23.5199 73.3268 27.2166 73.3335 32.5166 73.3335H47.2833C52.5833 73.3335 56.2833 73.3302 59.0699 73.0268C61.7799 72.7368 63.2133 72.2002 64.2366 71.3802C64.9033 70.8468 65.4166 70.1735 65.7933 69.1668H26.6666C26.0036 69.1668 25.3677 68.9034 24.8988 68.4346C24.43 67.9658 24.1666 67.3299 24.1666 66.6668C24.1666 66.0038 24.43 65.3679 24.8988 64.8991C25.3677 64.4302 26.0036 64.1668 26.6666 64.1668H66.5833C66.6433 62.9568 66.6599 61.5802 66.6666 60.0002ZM24.1666 23.3335C24.1666 22.6705 24.43 22.0346 24.8988 21.5657C25.3677 21.0969 26.0036 20.8335 26.6666 20.8335H53.3333C53.9963 20.8335 54.6322 21.0969 55.101 21.5657C55.5699 22.0346 55.8333 22.6705 55.8333 23.3335C55.8333 23.9965 55.5699 24.6324 55.101 25.1013C54.6322 25.5701 53.9963 25.8335 53.3333 25.8335H26.6666C26.0036 25.8335 25.3677 25.5701 24.8988 25.1013C24.43 24.6324 24.1666 23.9965 24.1666 23.3335ZM26.6666 32.5002C26.0036 32.5002 25.3677 32.7636 24.8988 33.2324C24.43 33.7012 24.1666 34.3371 24.1666 35.0002C24.1666 35.6632 24.43 36.2991 24.8988 36.7679C25.3677 37.2368 26.0036 37.5002 26.6666 37.5002H43.3333C43.9963 37.5002 44.6322 37.2368 45.101 36.7679C45.5699 36.2991 45.8333 35.6632 45.8333 35.0002C45.8333 34.3371 45.5699 33.7012 45.101 33.2324C44.6322 32.7636 43.9963 32.5002 43.3333 32.5002H26.6666Z" fill="#00594C"/>
  </g>
</svg>