<svg viewBox="0 0 500 500" xmlns="http://www.w3.org/2000/svg">
  <!-- Background -->
  <rect width="500" height="500" fill="#FFFFFF"/>
  
  <!-- Decorative accent circles -->
  <circle cx="60" cy="80" r="30" fill="#FED12E" opacity="0.8" />
  <circle cx="440" cy="440" r="40" fill="#FEB3D2" opacity="0.8"/>
  <circle cx="100" cy="460" r="25" fill="#00594C" opacity="0.8"/>
  <circle cx="420" cy="100" r="20" fill="#FEB3D2" opacity="0.8"/>
  
  <!-- Centered large Tree icon -->
<g transform="translate(100,100) scale(3.5)">
<path  fill-rule="evenodd" clip-rule="evenodd" d="M42.532 6C39.404 6 36.532 7.252 34.316 9.356C33.076 10.536 32.044 11.984 31.304 13.62C31.0938 14.0873 30.7124 14.4561 30.2383 14.6503C29.7642 14.8446 29.2336 14.8495 28.756 14.664C22.212 14.172 16.208 19.356 15.472 26.788C14.968 31.868 17.096 36.548 20.592 39.3C20.9723 39.5973 21.2323 40.0221 21.324 40.496C21.5043 40.9051 21.5423 41.3628 21.432 41.796C21.072 43.216 20.94 44.744 21.076 46.324C21.636 52.74 27.756 57.232 33.284 56.672C35.408 56.456 36.9 56.104 38.024 55.456C39.032 54.872 39.896 53.96 40.596 52.296C40.6674 52.0202 40.7969 51.7629 40.9758 51.5412C41.1548 51.3195 41.379 51.1386 41.6335 51.0106C41.888 50.8826 42.1669 50.8104 42.4515 50.7989C42.7362 50.7874 43.02 50.8369 43.284 50.944C43.5761 51.0593 43.837 51.2418 44.0455 51.4767C44.2539 51.7116 44.4042 51.9923 44.484 52.296C45.184 53.96 46.044 54.872 47.056 55.456C48.176 56.104 49.668 56.456 51.796 56.672C57.316 57.232 63.44 52.74 64 46.324C64.1355 44.8067 64.0152 43.2774 63.644 41.8C63.5331 41.3638 63.5726 40.903 63.756 40.492C63.8475 40.0201 64.106 39.5969 64.484 39.3C67.984 36.548 70.112 31.868 69.604 26.788C68.868 19.348 62.852 14.16 56.3 14.668C55.8229 14.8508 55.2939 14.8441 54.8215 14.6492C54.3492 14.4543 53.9694 14.0861 53.76 13.62C53.0396 12.0172 52.0154 10.5691 50.744 9.356C48.5427 7.21892 45.6 6.01632 42.532 6ZM56.732 10.64C55.8715 9.09055 54.7819 7.67998 53.5 6.456C50.555 3.61246 46.6257 2.01608 42.532 2C38.4369 2.01505 34.506 3.61151 31.56 6.456C30.2785 7.67876 29.1889 9.08797 28.328 10.636C19.692 10.38 12.392 17.316 11.488 26.396C10.892 32.436 13.232 38.132 17.34 41.788C17.0308 43.3952 16.9474 45.0377 17.092 46.668C17.852 55.392 26.028 61.428 33.684 60.652C35.968 60.42 38.152 60 40.028 58.916C40.9853 58.364 41.8227 57.656 42.54 56.792C43.2573 57.656 44.0947 58.364 45.052 58.916C46.928 60 49.108 60.42 51.392 60.652C59.048 61.428 67.224 55.392 67.988 46.672C68.132 44.992 68.04 43.352 67.74 41.792C71.848 38.132 74.188 32.436 73.588 26.392C72.688 17.308 65.376 10.372 56.732 10.636" fill="#00594C"/>
<path  d="M56.9321 20C56.9321 28.84 50.6601 36 42.9321 36C35.2001 36 28.9321 28.84 28.9321 20C28.9321 11.16 35.2001 4 42.9321 4C50.6601 4 56.9321 11.16 56.9321 20Z" fill="#00594C"/>
<path  d="M46.9321 44C46.9321 52.84 40.6601 60 32.9321 60C25.2001 60 18.9321 52.84 18.9321 44C18.9321 35.16 25.2001 28 32.9321 28C40.6601 28 46.9321 35.16 46.9321 44Z" fill="#00594C"/>
<path  d="M66.9321 44C66.9321 52.84 60.6601 60 52.9321 60C45.1961 60 38.9321 52.84 38.9321 44C38.9321 35.16 45.1961 28 52.9321 28C60.6601 28 66.9321 35.16 66.9321 44Z" fill="#00594C"/>
<path  d="M70.9321 28C70.9321 36.84 64.6641 44 56.9321 44C49.2001 44 42.9321 36.84 42.9321 28C42.9321 19.16 49.1961 12 56.9321 12C64.6681 12 70.9321 19.16 70.9321 28ZM42.9321 28C42.9321 36.84 36.6641 44 28.9321 44C21.2001 44 14.9321 36.84 14.9321 28C14.9321 19.16 21.2001 12 28.9321 12C36.6641 12 42.9321 19.16 42.9321 28Z" fill="#00594C"/>
</g>
<g transform="translate(100,120) scale(3.5)">
<path  fill-rule="evenodd"  clip-rule="evenodd" d="M54.5562 31.972C54.6913 32.1973 54.7806 32.4471 54.8191 32.7069C54.8576 32.9668 54.8445 33.2317 54.7807 33.4865C54.7168 33.7413 54.6033 33.9811 54.4467 34.192C54.2902 34.403 54.0936 34.581 53.8682 34.716L44.8402 40.132V77C44.8402 77.5304 44.6295 78.0391 44.2544 78.4142C43.8794 78.7893 43.3706 79 42.8402 79C42.3098 79 41.8011 78.7893 41.426 78.4142C41.0509 78.0391 40.8402 77.5304 40.8402 77V50.132L31.8122 44.72C31.3571 44.4474 31.0289 44.0051 30.8999 43.4905C30.7709 42.9759 30.8516 42.4311 31.1242 41.976C31.3969 41.5209 31.8391 41.1927 32.3537 41.0637C32.8683 40.9347 33.4131 41.0154 33.8682 41.288L40.8402 45.472V25C40.8402 24.4696 41.0509 23.9609 41.426 23.5858C41.8011 23.2107 42.3098 23 42.8402 23C43.3706 23 43.8794 23.2107 44.2544 23.5858C44.6295 23.9609 44.8402 24.4696 44.8402 25V35.468L51.8122 31.284C52.0375 31.149 52.2873 31.0596 52.5471 31.0211C52.807 30.9826 53.0719 30.9957 53.3267 31.0596C53.5816 31.1234 53.8213 31.2369 54.0322 31.3935C54.2432 31.55 54.4212 31.7466 54.5562 31.972Z" fill="#282828"/>
</g>
  
</svg>