<svg viewBox="0 0 500 500" xmlns="http://www.w3.org/2000/svg">
  <!-- Background -->
  <rect width="500" height="500" fill="#FFFFFF"/>
  
  <!-- Decorative accent circles -->
  <circle cx="60" cy="80" r="30" fill="#FED12E" opacity="0.8" />
  <circle cx="440" cy="440" r="40" fill="#FEB3D2" opacity="0.8"/>
  <circle cx="100" cy="460" r="25" fill="#00594C" opacity="0.8"/>
  <circle cx="420" cy="100" r="20" fill="#FEB3D2" opacity="0.8"/>
  
  <!-- Centered large people icon -->
  <g transform="translate(100,100) scale(3.3)">
    <path fill-rule="evenodd" clip-rule="evenodd" d="M46.7135 56.6668L46.6935 63.3435C46.6901 64.9102 46.6868 65.6935 46.1968 66.1802C45.7068 66.6668 44.9235 66.6668 43.3501 66.6668H33.3168C20.7168 66.6668 14.4168 66.6668 10.5001 62.7602C7.80012 60.0735 6.96345 56.2568 6.70012 50.0368C6.65012 48.8035 6.62345 48.1835 6.85345 47.7735C7.08678 47.3635 8.00345 46.8502 9.84345 45.8202C10.8799 45.2423 11.7432 44.3982 12.3443 43.3751C12.9453 42.3519 13.2622 41.1868 13.2622 40.0002C13.2622 38.8135 12.9453 37.6484 12.3443 36.6253C11.7432 35.6021 10.8799 34.758 9.84345 34.1802C8.00345 33.1535 7.08345 32.6368 6.85345 32.2268C6.62345 31.8168 6.65012 31.2002 6.70345 29.9635C6.96345 23.7435 7.80345 19.9302 10.5001 17.2402C14.4135 13.3335 20.7135 13.3335 33.3168 13.3335H45.0168C45.2357 13.3331 45.4525 13.3757 45.6548 13.4591C45.8572 13.5424 46.0412 13.6648 46.1963 13.8193C46.3513 13.9738 46.4745 14.1572 46.5586 14.3593C46.6428 14.5613 46.6863 14.778 46.6868 14.9968L46.7135 23.3335C46.7135 25.1735 48.2101 26.6668 50.0535 26.6668V33.3335C48.2101 33.3335 46.7135 34.8268 46.7135 36.6668V43.3335C46.7135 45.1735 48.2101 46.6668 50.0535 46.6668V53.3335C48.2101 53.3335 46.7135 54.8268 46.7135 56.6668Z" fill="#00594C"/>
    <path opacity="0.5" d="M50.0566 53.3331C51.9 53.3331 53.3966 54.8265 53.3966 56.6665V63.2531C53.3966 64.8598 53.3966 65.6631 53.9133 66.1531C54.4266 66.6465 55.2133 66.6131 56.79 66.5465C63 66.2831 66.8133 65.4431 69.5033 62.7598C72.2 60.0731 73.0366 56.2531 73.3 50.0331C73.35 48.7998 73.3766 48.1831 73.1466 47.7731C72.9166 47.3598 71.9966 46.8465 70.1566 45.8198C69.1202 45.242 68.2569 44.3979 67.6558 43.3747C67.0548 42.3515 66.7379 41.1864 66.7379 39.9998C66.7379 38.8132 67.0548 37.6481 67.6558 36.6249C68.2569 35.6017 69.1202 34.7576 70.1566 34.1798C71.9966 33.1498 72.9166 32.6365 73.1466 32.2265C73.38 31.8131 73.35 31.1965 73.3 29.9631C73.0366 23.7431 72.2 19.9265 69.5 17.2365C66.5766 14.3198 62.32 13.5831 55.0933 13.3965C54.8724 13.3911 54.6527 13.4301 54.447 13.5109C54.2414 13.5918 54.054 13.713 53.8959 13.8673C53.7378 14.0217 53.6122 14.2061 53.5265 14.4098C53.4407 14.6134 53.3966 14.8322 53.3966 15.0531V23.3331C53.3966 25.1731 51.9 26.6665 50.0566 26.6665V33.3331C50.4949 33.3323 50.9291 33.4178 51.3343 33.585C51.7395 33.7521 52.1077 33.9975 52.418 34.3071C52.7282 34.6167 52.9743 34.9845 53.1423 35.3893C53.3102 35.7942 53.3966 36.2282 53.3966 36.6665V43.3331C53.3966 45.1731 51.9 46.6665 50.0566 46.6665V53.3331Z" fill="#00594C"/>
  </g>
</svg>