<svg viewBox="0 0 500 500" xmlns="http://www.w3.org/2000/svg">
  <!-- Background -->
  <rect width="500" height="500" fill="#FFFFFF"/>
  
  <!-- Decorative accent circles -->
  <circle cx="60" cy="80" r="30" fill="#FED12E" opacity="0.8" />
  <circle cx="440" cy="440" r="40" fill="#FEB3D2" opacity="0.8"/>
  <circle cx="100" cy="460" r="25" fill="#00594C" opacity="0.8"/>
  <circle cx="420" cy="100" r="20" fill="#FEB3D2" opacity="0.8"/>
  
  <!-- Centered large people icon -->
  <g transform="translate(100,100) scale(3)">
    <path d="M49.5524 38.5521C49.5524 39.8065 49.3053 41.0486 48.8253 42.2075C48.3452 43.3664 47.6416 44.4194 46.7546 45.3064C45.8676 46.1934 44.8146 46.897 43.6557 47.377C42.4968 47.8571 41.2547 48.1041 40.0003 48.1041C38.7459 48.1041 37.5038 47.8571 36.3449 47.377C35.186 46.897 34.133 46.1934 33.246 45.3064C32.359 44.4194 31.6554 43.3664 31.1753 42.2075C30.6953 41.0486 30.4482 39.8065 30.4482 38.5521C30.4482 36.0187 31.4546 33.5891 33.246 31.7977C35.0373 30.0064 37.4669 29 40.0003 29C42.5337 29 44.9633 30.0064 46.7546 31.7977C48.546 33.5891 49.5524 36.0187 49.5524 38.5521Z" fill="#00594C"/>
    <path opacity="0.4" d="M60.4687 38.5524C60.4687 40.3619 59.7498 42.0974 58.4703 43.3769C57.1907 44.6565 55.4553 45.3753 53.6458 45.3753C51.8362 45.3753 50.1008 44.6565 48.8212 43.3769C47.5417 42.0974 46.8229 40.3619 46.8229 38.5524C46.8229 36.7428 47.5417 35.0074 48.8212 33.7279C50.1008 32.4483 51.8362 31.7295 53.6458 31.7295C55.4553 31.7295 57.1907 32.4483 58.4703 33.7279C59.7498 35.0074 60.4687 36.7428 60.4687 38.5524ZM19.5312 38.5524C19.5313 40.3619 20.2501 42.0974 21.5296 43.3769C22.8092 44.6565 24.5446 45.3753 26.3542 45.3753C28.1637 45.3753 29.8991 44.6565 31.1787 43.3769C32.4582 42.0974 33.1771 40.3619 33.1771 38.5524C33.1771 36.7428 32.4582 35.0074 31.1787 33.7279C29.8991 32.4483 28.1637 31.7295 26.3542 31.7295C24.5446 31.7295 22.8092 32.4483 21.5296 33.7279C20.2501 35.0074 19.5312 36.7428 19.5312 38.5524Z" fill="#00594C"/>
    <path d="M56.3749 63.1146C56.3749 68.39 49.0444 72.6666 40 72.6666C30.9555 72.6666 23.625 68.39 23.625 63.1146C23.625 57.8391 30.9555 53.5625 40 53.5625C49.0444 53.5625 56.3749 57.8391 56.3749 63.1146Z" fill="#00594C"/>
    <path opacity="0.4" d="M67.2917 63.1149C67.2917 66.8811 62.4065 69.9378 56.3751 69.9378C50.3436 69.9378 45.4584 66.8811 45.4584 63.1149C45.4584 59.3487 50.3436 56.292 56.3751 56.292C62.4065 56.292 67.2917 59.3487 67.2917 63.1149ZM12.7085 63.1149C12.7085 66.8811 17.5937 69.9378 23.6251 69.9378C29.6566 69.9378 34.5418 66.8811 34.5418 63.1149C34.5418 59.3487 29.6566 56.292 23.6251 56.292C17.5937 56.292 12.7085 59.3487 12.7085 63.1149Z" fill="#00594C"/>
    <path opacity="0.5" fill-rule="evenodd" clip-rule="evenodd" d="M36.106 23.2469C33.298 21.0829 30 18.5419 30 14.1369C30 9.27389 35.5 5.82489 40 10.5009V25.4999C39 25.4999 38 24.7299 36.962 23.9099C36.684 23.6926 36.3987 23.4716 36.106 23.2469Z" fill="#00594C"/>
    <path d="M43.038 23.9099C45.981 21.5919 50 18.9999 50 14.1379C50 9.2759 44.5 5.8249 40 10.5009V25.4999C41 25.4999 42 24.7299 43.038 23.9099Z" fill="#00594C"/>
  </g>
</svg>