<svg viewBox="0 0 500 500" xmlns="http://www.w3.org/2000/svg">
  <!-- Background -->
  <rect width="500" height="500" fill="#FFFFFF"/>
  
  <!-- Decorative accent circles -->
  <circle cx="60" cy="80" r="30" fill="#FED12E" opacity="0.8" />
  <circle cx="440" cy="440" r="40" fill="#FEB3D2" opacity="0.8"/>
  <circle cx="100" cy="460" r="25" fill="#00594C" opacity="0.8"/>
  <circle cx="420" cy="100" r="20" fill="#FEB3D2" opacity="0.8"/>
  
  <!-- Centered large people icon -->
  <g transform="translate(100,100) scale(3)">
    <path fill-rule="evenodd" clip-rule="evenodd" d="M6.75977 37.4998C7.39036 29.1156 11.1661 21.2794 17.3303 15.5615C23.4945 9.84359 31.5919 6.66637 39.9998 6.6665C37.2331 6.6665 34.7664 7.87984 32.7331 9.7365C30.7164 11.5832 29.0131 14.1632 27.6331 17.2098C26.2464 20.2765 25.1664 23.8632 24.4364 27.7532C23.8444 30.9716 23.4901 34.2293 23.3764 37.4998H6.75977ZM6.75977 42.4998H23.3764C23.4964 45.8398 23.8531 49.1265 24.4364 52.2465C25.1698 56.1365 26.2464 59.7232 27.6331 62.7898C29.0131 65.8365 30.7164 68.4165 32.7331 70.2632C34.7664 72.1198 37.2331 73.3332 39.9998 73.3332C22.4331 73.3332 8.03643 59.7432 6.75977 42.4998Z" fill="#00594C"/>
    <path d="M40 6.6665C42.77 6.6665 45.2333 7.87984 47.2667 9.7365C49.2833 11.5832 50.99 14.1632 52.3667 17.2098C53.7567 20.2765 54.8333 23.8632 55.5633 27.7532C56.1467 30.8732 56.5033 34.1598 56.6233 37.4998H73.24C72.6094 29.1156 68.8337 21.2794 62.6695 15.5615C56.5052 9.84359 48.4079 6.66637 40 6.6665ZM55.5633 52.2465C54.8333 56.1365 53.7567 59.7232 52.3667 62.7898C50.99 65.8365 49.2833 68.4165 47.2667 70.2632C45.2333 72.1198 42.77 73.3332 40 73.3332C57.5667 73.3332 71.9633 59.7432 73.24 42.4998H56.6233C56.5097 45.7703 56.1554 49.028 55.5633 52.2465Z" fill="#00594C"/>
    <path opacity="0.5" d="M40.0002 11.3198C39.0836 11.3198 37.9002 11.7098 36.5236 12.9698C35.1369 14.2365 33.7469 16.2265 32.5202 18.9365C31.3002 21.6298 30.3102 24.8832 29.6302 28.5132C29.0969 31.3765 28.7636 34.4065 28.6436 37.4998H51.3569C51.2483 34.4842 50.9185 31.4805 50.3702 28.5132C49.6902 24.8798 48.7036 21.6298 47.4802 18.9398C46.2536 16.2265 44.8669 14.2398 43.4802 12.9698C42.1002 11.7098 40.9169 11.3198 40.0002 11.3198ZM29.6302 51.4865C30.3102 55.1198 31.3002 58.3698 32.5202 61.0632C33.7469 63.7732 35.1369 65.7632 36.5202 67.0298C37.9002 68.2932 39.0869 68.6832 40.0002 68.6832C40.9169 68.6832 42.1002 68.2932 43.4802 67.0332C44.8669 65.7632 46.2536 63.7732 47.4802 61.0632C48.7002 58.3698 49.6902 55.1198 50.3702 51.4865C50.9069 48.6265 51.2402 45.5932 51.3569 42.4998H28.6436C28.7602 45.5932 29.0936 48.6265 29.6302 51.4865Z" fill="#00594C"/>
  </g>
</svg>