<svg viewBox="0 0 500 500" xmlns="http://www.w3.org/2000/svg">
  <!-- Background -->
  <rect width="500" height="500" fill="#FFFFFF"/>
  
  <!-- Decorative accent circles -->
  <circle cx="60" cy="80" r="30" fill="#FED12E" opacity="0.8" />
  <circle cx="440" cy="440" r="40" fill="#FEB3D2" opacity="0.8"/>
  <circle cx="100" cy="460" r="25" fill="#00594C" opacity="0.8"/>
  <circle cx="420" cy="100" r="20" fill="#FEB3D2" opacity="0.8"/>
  
  <!-- Centered large people icon -->
  <g transform="translate(100,100) scale(3)">
    <path opacity="0.4" d="M6.6665 31.0599C6.6665 43.4899 20.0665 56.6365 29.8732 64.5932C34.3132 68.1999 36.5332 69.9999 39.9998 69.9999C43.4665 69.9999 45.6865 68.1999 50.1265 64.5965C59.9365 56.6332 73.3332 43.4899 73.3332 31.0565C73.3332 10.2899 54.9998 2.53652 39.9998 18.5799C24.9998 2.53652 6.6665 10.2899 6.6665 31.0599Z" fill="#00594C"/>
    <path fill-rule="evenodd" clip-rule="evenodd" d="M55.0002 20.8335C55.6632 20.8335 56.2991 21.0969 56.7679 21.5657C57.2368 22.0346 57.5002 22.6705 57.5002 23.3335V27.5002H61.6668C62.3299 27.5002 62.9658 27.7636 63.4346 28.2324C63.9034 28.7012 64.1668 29.3371 64.1668 30.0002C64.1668 30.6632 63.9034 31.2991 63.4346 31.7679C62.9658 32.2368 62.3299 32.5002 61.6668 32.5002H57.5002V36.6668C57.5002 37.3299 57.2368 37.9658 56.7679 38.4346C56.2991 38.9034 55.6632 39.1668 55.0002 39.1668C54.3371 39.1668 53.7012 38.9034 53.2324 38.4346C52.7636 37.9658 52.5002 37.3299 52.5002 36.6668V32.5002H48.3335C47.6705 32.5002 47.0346 32.2368 46.5657 31.7679C46.0969 31.2991 45.8335 30.6632 45.8335 30.0002C45.8335 29.3371 46.0969 28.7012 46.5657 28.2324C47.0346 27.7636 47.6705 27.5002 48.3335 27.5002H52.5002V23.3335C52.5002 22.6705 52.7636 22.0346 53.2324 21.5657C53.7012 21.0969 54.3371 20.8335 55.0002 20.8335Z" fill="#00594C"/>
  </g>
</svg>