<svg viewBox="0 0 500 500" xmlns="http://www.w3.org/2000/svg">
  <!-- Background -->
  <rect width="500" height="500" fill="#FFFFFF"/>
  
  <!-- Decorative accent circles -->
  <circle cx="60" cy="80" r="30" fill="#FED12E" opacity="0.8" />
  <circle cx="440" cy="440" r="40" fill="#FEB3D2" opacity="0.8"/>
  <circle cx="100" cy="460" r="25" fill="#00594C" opacity="0.8"/>
  <circle cx="420" cy="100" r="20" fill="#FEB3D2" opacity="0.8"/>
  
  <!-- Centered large people icon -->
  <g transform="translate(100,100) scale(3.5)">
    <path opacity="0.5" d="M66.6668 40.0002C66.6668 47.0726 63.8573 53.8554 58.8563 58.8563C53.8554 63.8573 47.0726 66.6668 40.0002 66.6668C32.9277 66.6668 26.145 63.8573 21.144 58.8563C16.143 53.8554 13.3335 47.0726 13.3335 40.0002C13.3335 32.9277 16.143 26.145 21.144 21.144C26.145 16.143 32.9277 13.3335 40.0002 13.3335C47.0726 13.3335 53.8554 16.143 58.8563 21.144C63.8573 26.145 66.6668 32.9277 66.6668 40.0002Z" fill="#00594C"/>
    <path d="M59.0399 18.1765C62.5299 17.5331 65.7265 17.3131 68.3632 17.6698C70.9299 18.0131 73.4832 18.9798 74.8832 21.2165C76.3699 23.5965 75.9232 26.3565 74.8432 28.7431C73.7432 31.1698 71.7832 33.7398 69.2699 36.3031C64.2165 41.4598 56.4832 47.0565 47.2799 51.9598C38.0699 56.8665 28.9632 60.2398 21.6332 61.6931C17.9832 62.4165 14.6399 62.6898 11.8899 62.3631C9.22321 62.0465 6.55654 61.0865 5.11654 58.7798C3.54987 56.2731 4.12987 53.3465 5.34987 50.8498C6.59987 48.2898 8.78987 45.5631 11.5899 42.8398L13.3332 41.3865C13.3332 42.1165 13.6099 43.7531 13.8932 45.2065C14.0432 45.9731 14.1932 46.6865 14.3032 47.1931C12.1299 49.4131 10.6432 51.4031 9.83987 53.0465C8.91654 54.9365 9.14654 55.7965 9.35654 56.1298C9.59654 56.5165 10.3732 57.1465 12.4799 57.3965C14.5099 57.6398 17.2799 57.4565 20.6632 56.7865C27.3965 55.4531 36.0399 52.2831 44.9299 47.5465C53.8199 42.8098 61.0965 37.4965 65.6965 32.8031C68.0099 30.4465 69.5299 28.3565 70.2865 26.6831C71.0632 24.9665 70.8432 24.1831 70.6432 23.8698C70.4099 23.4965 69.6799 22.8898 67.6999 22.6231C65.8932 22.3831 63.4599 22.4865 60.4899 22.9965L56.2332 18.8531C57.3599 18.5165 58.4265 18.2865 59.0399 18.1765Z" fill="#00594C"/>
  </g>
</svg>