<svg viewBox="0 0 500 500" xmlns="http://www.w3.org/2000/svg">
  <!-- Background -->
  <rect width="500" height="500" fill="#FFFFFF"/>
  
  <!-- Decorative accent circles -->
  <circle cx="60" cy="80" r="30" fill="#FED12E" opacity="0.8" />
  <circle cx="440" cy="440" r="40" fill="#FEB3D2" opacity="0.8"/>
  <circle cx="100" cy="460" r="25" fill="#00594C" opacity="0.8"/>
  <circle cx="420" cy="100" r="20" fill="#FEB3D2" opacity="0.8"/>
  
  <!-- Centered large people icon -->
  <g transform="translate(100,100) scale(3)">
    <path d="M70.6869 53.0398C69.8937 53.3657 69.1037 53.6991 68.3169 54.0398L68.2835 54.0565C66.6602 54.7565 64.8002 55.5565 62.7702 56.3032C58.6835 57.8165 53.7935 59.1698 48.3635 59.1698C42.3202 59.1698 37.6869 57.5498 33.9735 55.7698C32.5402 55.0832 31.2102 54.3532 30.0402 53.7132L29.1335 53.2132C27.7002 52.4398 26.5869 51.8832 25.5935 51.5698C21.7011 50.3743 17.6873 49.6174 13.6269 49.3132C12.0157 49.1865 10.3996 49.1331 8.78353 49.1532L8.52686 49.1632H8.45686L7.9502 49.1898C9.85343 55.8105 13.7602 61.6793 19.1336 65.9899C24.5071 70.3004 31.0835 72.8413 37.9593 73.2632C44.8352 73.6852 51.6729 71.9675 57.5331 68.3463C63.3933 64.7251 67.9884 59.3781 70.6869 53.0398ZM10.7902 23.9298L11.7802 24.9365L11.7902 24.9498L11.8535 25.0098L12.1402 25.2798C12.4035 25.5198 12.8069 25.8798 13.3402 26.3132C14.4069 27.1798 15.9902 28.3465 18.0202 29.5132C22.0835 31.8598 27.8502 34.1665 34.7869 34.1665C39.3669 34.1665 42.8735 32.8532 45.8469 31.2998C47.0302 30.6798 48.0969 30.0432 49.1569 29.4098L50.0735 28.8665C51.3802 28.0932 52.7735 27.3065 54.1869 26.8198C57.8461 25.5596 61.6393 24.7285 65.4902 24.3432C66.7696 24.2179 68.0547 24.1601 69.3402 24.1698C66.4838 18.8767 62.2485 14.455 57.0831 11.3735C51.9178 8.29201 46.0149 6.66554 40.0002 6.6665C34.0318 6.66541 28.1725 8.26683 23.0343 11.3035C17.8962 14.3402 13.6676 18.7008 10.7902 23.9298Z" fill="#00594C"/>
    <path opacity="0.5" d="M72.5834 47.0601C73.0834 44.7801 73.3334 42.4267 73.3334 40.0001C73.3365 36.3663 72.7453 32.7564 71.5834 29.3134L69.8267 29.1867H69.7901L69.6201 29.1767C68.4006 29.1576 67.181 29.2055 65.9667 29.3201C62.5058 29.6665 59.0971 30.416 55.8101 31.5534C54.9334 31.8534 53.9334 32.3934 52.6167 33.1701L51.7901 33.6634C50.7167 34.3067 49.4901 35.0401 48.1634 35.7301C44.7301 37.5267 40.4201 39.1667 34.7901 39.1667C26.7301 39.1667 20.1001 36.4901 15.5234 33.8467C13.65 32.7748 11.8664 31.5531 10.1901 30.1934C9.64065 29.7512 9.10698 29.2898 8.59008 28.8101C6.8432 33.7529 6.27477 39.0354 6.93008 44.2367L8.21341 44.1701H8.25008L8.34008 44.1667C8.83983 44.1476 9.33999 44.1409 9.84008 44.1467C10.8501 44.1534 12.2834 44.1934 14.0167 44.3301C17.4734 44.5967 22.1734 45.2534 27.0934 46.8034C28.5934 47.2734 30.0901 48.0467 31.5167 48.8201L32.5134 49.3634C33.6667 49.9967 34.8367 50.6401 36.1367 51.2634C39.4034 52.8301 43.2834 54.1667 48.3634 54.1667C52.9734 54.1667 57.2367 53.0201 61.0367 51.6134C62.9401 50.9134 64.7001 50.1567 66.3401 49.4467L66.4001 49.4234C67.9834 48.7434 69.5234 48.0801 70.8767 47.6301L72.5834 47.0601Z" fill="#00594C"/>
  </g>
</svg>