<svg viewBox="0 0 500 500" xmlns="http://www.w3.org/2000/svg">
  <!-- Background -->
  <rect width="500" height="500" fill="#FFFFFF"/>
  
  <!-- Decorative accent circles -->
  <circle cx="60" cy="80" r="30" fill="#FED12E" opacity="0.8" />
  <circle cx="440" cy="440" r="40" fill="#FEB3D2" opacity="0.8"/>
  <circle cx="100" cy="460" r="25" fill="#00594C" opacity="0.8"/>
  <circle cx="420" cy="100" r="20" fill="#FEB3D2" opacity="0.8"/>
  
  <!-- Centered large people icon -->
  <g transform="translate(100,100) scale(3)">
    <path opacity="0.5" d="M40.392 51.5175C41.412 58.8575 41.864 63.4295 41.744 65.4375C41.56 68.5575 39.468 71.8455 35.608 75.4255C35.3566 75.6591 35.0494 75.8241 34.7158 75.9046C34.3822 75.9851 34.0335 75.9785 33.7033 75.8852C33.373 75.792 33.0723 75.6154 32.83 75.3724C32.5878 75.1293 32.4121 74.8281 32.32 74.4975L26.98 55.3775L24.58 52.9775L5.45999 47.6375C5.13018 47.545 4.82965 47.3694 4.5872 47.1274C4.34475 46.8855 4.16851 46.5853 4.07537 46.2557C3.98222 45.926 3.97529 45.578 4.05525 45.2449C4.1352 44.9119 4.29936 44.6049 4.53199 44.3535C8.11599 40.4935 11.4 38.4015 14.52 38.2135C16.532 38.0935 21.108 38.5455 28.448 39.5735L38.172 28.9615L13.96 22.1935C13.6302 22.101 13.3297 21.9254 13.0872 21.6834C12.8448 21.4415 12.6685 21.1413 12.5754 20.8117C12.4822 20.482 12.4753 20.134 12.5552 19.8009C12.6352 19.4679 12.7994 19.1609 13.032 18.9095C18.572 12.9335 23.584 9.74551 28.204 9.46951C31.744 9.25751 39.196 11.1175 50.924 15.0535L52.704 13.1175C60.892 4.92951 67.636 2.69751 72.452 7.51351C77.268 12.3295 75.032 19.0735 66.78 27.3175L64.904 29.0375C68.844 40.7615 70.704 48.2135 70.492 51.7575C70.216 56.3775 67.024 61.3895 61.052 66.9295C60.8006 67.1631 60.4934 67.3281 60.1598 67.4086C59.8262 67.4891 59.4775 67.4825 59.1473 67.3892C58.817 67.296 58.5163 67.1194 58.274 66.8764C58.0318 66.6333 57.8561 66.3321 57.764 66.0015L51.004 41.7895L40.392 51.5175Z" fill="#00595C"/>
    <path d="M72.1604 19.1835C72.9449 17.5521 73.188 15.7129 72.8544 13.9336C72.5209 12.1544 71.628 10.5282 70.3058 9.29175C68.9837 8.05531 67.3013 7.27325 65.5038 7.05948C63.7063 6.8457 61.8874 7.21138 60.3122 8.10324L64.5 15.5L72.1604 19.1835Z" fill="#00594C"/>
  </g>
</svg>