<svg viewBox="0 0 500 500" xmlns="http://www.w3.org/2000/svg">
  <!-- Background -->
  <rect width="500" height="500" fill="#FFFFFF"/>
  
  <!-- Decorative accent circles -->
  <circle cx="60" cy="80" r="30" fill="#FED12E" opacity="0.8" />
  <circle cx="440" cy="440" r="40" fill="#FEB3D2" opacity="0.8"/>
  <circle cx="100" cy="460" r="25" fill="#00594C" opacity="0.8"/>
  <circle cx="420" cy="100" r="20" fill="#FEB3D2" opacity="0.8"/>
  
  <!-- Centered large people icon -->
  <g transform="translate(100,100) scale(3)">
    <path d="M23.3335 16.1001C23.3335 21.2568 29.0868 26.6934 33.8335 30.3001C36.4968 32.3201 37.8268 33.3334 40.0002 33.3334C42.1735 33.3334 43.5035 32.3201 46.1668 30.3001C50.9135 26.6901 56.6668 21.2534 56.6668 16.1001C56.6668 6.80011 47.5002 3.32345 40.0002 10.5101C32.5002 3.32345 23.3335 6.80011 23.3335 16.1001Z" fill="#00594C"/>
    <path opacity="0.5" d="M20.8668 71.2936H20.0002C16.8568 71.2936 15.2868 71.2936 14.3102 70.3169C13.3335 69.3469 13.3335 67.7736 13.3335 64.6302V60.9236C13.3335 59.1969 13.3335 58.3336 13.7768 57.5602C14.2202 56.7869 14.8902 56.4002 16.2302 55.6202C25.0502 50.4902 37.5735 47.6036 45.9302 52.5869C46.4924 52.9224 46.9924 53.3313 47.4302 53.8136C47.8787 54.3038 48.2243 54.879 48.4465 55.5052C48.6687 56.1313 48.7631 56.7957 48.7239 57.459C48.6847 58.1223 48.5129 58.771 48.2185 59.3666C47.9242 59.9623 47.5133 60.4929 47.0102 60.9269C46.6094 61.3074 46.1203 61.5823 45.5868 61.7269C45.9868 61.6802 46.3702 61.628 46.7368 61.5702C49.7735 61.0869 52.3235 59.4602 54.6568 57.6969L60.6835 53.1469C61.7593 52.3663 63.0544 51.9459 64.3835 51.9459C65.7126 51.9459 67.0077 52.3663 68.0835 53.1469C69.9935 54.5902 70.5802 56.9669 69.3702 58.9069C67.9602 61.1669 65.9735 64.0569 64.0668 65.8236C62.1602 67.5902 59.3135 69.1702 56.9935 70.2902C54.4202 71.5336 51.5802 72.2469 48.6902 72.7169C42.8302 73.6636 36.7235 73.5169 30.9235 72.3236C27.6146 71.6425 24.2451 71.2952 20.8668 71.2936Z" fill="#00594C"/>
  </g>
</svg>