<svg width="18" height="16" viewBox="0 0 18 16" fill="none" xmlns="http://www.w3.org/2000/svg">
<path d="M0 1.125C0 0.826631 0.118527 0.540483 0.329505 0.329505C0.540483 0.118527 0.826631 0 1.125 0H16.875C17.1734 0 17.4595 0.118527 17.6705 0.329505C17.8815 0.540483 18 0.826631 18 1.125C18 1.42337 17.8815 1.70952 17.6705 1.92049C17.4595 2.13147 17.1734 2.25 16.875 2.25H1.125C0.826631 2.25 0.540483 2.13147 0.329505 1.92049C0.118527 1.70952 0 1.42337 0 1.125ZM0 14.625C0 14.3266 0.118527 14.0405 0.329505 13.8295C0.540483 13.6185 0.826631 13.5 1.125 13.5H16.875C17.1734 13.5 17.4595 13.6185 17.6705 13.8295C17.8815 14.0405 18 14.3266 18 14.625C18 14.9234 17.8815 15.2095 17.6705 15.4205C17.4595 15.6315 17.1734 15.75 16.875 15.75H1.125C0.826631 15.75 0.540483 15.6315 0.329505 15.4205C0.118527 15.2095 0 14.9234 0 14.625ZM1.125 6.75C0.826631 6.75 0.540483 6.86853 0.329505 7.0795C0.118527 7.29048 0 7.57663 0 7.875C0 8.17337 0.118527 8.45952 0.329505 8.6705C0.540483 8.88147 0.826631 9 1.125 9H10.125C10.4234 9 10.7095 8.88147 10.9205 8.6705C11.1315 8.45952 11.25 8.17337 11.25 7.875C11.25 7.57663 11.1315 7.29048 10.9205 7.0795C10.7095 6.86853 10.4234 6.75 10.125 6.75H1.125Z" fill="#8E9BAE"/>
</svg>
