<svg width="24" height="25" viewBox="0 0 24 25" fill="none" xmlns="http://www.w3.org/2000/svg">
<path d="M12 1.5L3 5.5V11.5C3 17.05 6.84 22.24 12 23.5C17.16 22.24 21 17.05 21 11.5V5.5L12 1.5ZM19 11.5C19 16.02 16.02 20.19 12 21.43C7.98 20.19 5 16.02 5 11.5V6.8L12 3.69L19 6.8V11.5ZM7.41 12.09L6 13.5L10 17.5L18 9.5L16.59 8.08L10 14.67L7.41 12.09Z" fill="#00594C"/>
<path opacity="0.3" d="M5 6.79994V11.4999C5 16.0199 7.98 20.1899 12 21.4299C16.02 20.1999 19 16.0199 19 11.4999V6.79994L12 3.68994L5 6.79994ZM18 9.49994L10 17.4999L6 13.4999L7.41 12.0899L10 14.6699L16.59 8.07994L18 9.49994Z" fill="#00594C"/>
</svg>
