<svg width="65" height="38" viewBox="0 0 65 38" fill="none" xmlns="http://www.w3.org/2000/svg">
<g clip-path="url(#clip0_8871_2441)">
<rect x="3" y="3" width="32.1162" height="32.1162" rx="16.0581" fill="#4A90E2"/>
<path d="M22.3769 21.6271V22.9118C22.3769 24.6247 24.8392 25.374 24.8392 25.374C24.8392 25.374 22.0022 27.5151 19.0583 27.5151C16.1143 27.5151 13.2773 25.374 13.2773 25.374C13.2773 25.374 15.759 24.6247 15.7396 22.9118C15.7202 21.1989 15.7332 20.1926 15.7202 17.2581C14.1859 15.2693 14.2844 13.9346 15.1234 12.9959C17.9342 9.8512 25.5886 10.9217 25.5886 10.9217C25.5886 10.9217 26.3028 18.6289 24.6786 20.8778C23.9827 21.8413 22.3769 21.6271 22.3769 21.6271Z" fill="url(#paint0_linear_8871_2441)"/>
<path style="mix-blend-mode:multiply" opacity="0.6" d="M22.3758 21.6274C20.0206 21.3598 18.6289 20.3428 18.6289 20.3428C19.5076 21.6427 20.8466 22.5609 22.3758 22.9121V21.6274Z" fill="url(#paint1_linear_8871_2441)"/>
<path d="M30.2981 28.619C31.3173 30.6912 31.9039 35.4704 31.9039 35.4704H6.21094C6.21094 35.4704 6.79781 30.6907 7.81675 28.619C8.83569 26.5473 14.786 24.6257 14.786 24.6257C15.9328 26.9802 22.2271 26.9802 23.3258 24.625C23.3258 24.625 29.2789 26.5467 30.2981 28.619Z" fill="url(#paint2_linear_8871_2441)"/>
<path d="M18.6289 32.7612C18.6289 32.6765 18.654 32.5937 18.7011 32.5233C18.7481 32.4528 18.815 32.398 18.8933 32.3655C18.9715 32.3331 19.0576 32.3246 19.1407 32.3412C19.2237 32.3577 19.3 32.3985 19.3599 32.4584C19.4198 32.5183 19.4606 32.5946 19.4771 32.6776C19.4936 32.7607 19.4852 32.8468 19.4527 32.925C19.4203 33.0033 19.3654 33.0702 19.295 33.1172C19.2246 33.1643 19.1418 33.1894 19.0571 33.1894C18.9436 33.1894 18.8346 33.1443 18.7543 33.064C18.674 32.9836 18.6289 32.8747 18.6289 32.7612ZM18.6289 30.6201C18.6289 30.5354 18.654 30.4526 18.7011 30.3822C18.7481 30.3118 18.815 30.2569 18.8933 30.2245C18.9715 30.192 19.0576 30.1836 19.1407 30.2001C19.2237 30.2166 19.3 30.2574 19.3599 30.3173C19.4198 30.3772 19.4606 30.4535 19.4771 30.5365C19.4936 30.6196 19.4852 30.7057 19.4527 30.7839C19.4203 30.8622 19.3654 30.9291 19.295 30.9761C19.2246 31.0232 19.1418 31.0483 19.0571 31.0483C18.9436 31.0483 18.8346 31.0032 18.7543 30.9229C18.674 30.8426 18.6289 30.7336 18.6289 30.6201ZM18.6289 28.479C18.6289 28.3943 18.654 28.3115 18.7011 28.2411C18.7481 28.1707 18.815 28.1158 18.8933 28.0834C18.9715 28.051 19.0576 28.0425 19.1407 28.059C19.2237 28.0755 19.3 28.1163 19.3599 28.1762C19.4198 28.2361 19.4606 28.3124 19.4771 28.3955C19.4936 28.4785 19.4852 28.5646 19.4527 28.6429C19.4203 28.7211 19.3654 28.788 19.295 28.835C19.2246 28.8821 19.1418 28.9072 19.0571 28.9072C18.9436 28.9072 18.8346 28.8621 18.7543 28.7818C18.674 28.7015 18.6289 28.5926 18.6289 28.479Z" fill="white"/>
<path d="M17.0407 14.049C16.7002 13.7567 16.2866 13.5598 15.7018 13.8636C14.3156 14.5833 15.3647 17.3453 16.5958 17.3453C16.917 17.3453 17.0767 18.354 15.6468 19.0582C15.6468 17.9341 13.9339 15.1507 13.7841 12.6165C12.0605 11.9747 12.4887 9.40683 13.672 9.40683C13.4831 7.05293 17.2526 5.83701 18.7122 7.18792C20.1966 5.40879 23.9435 6.31875 24.1697 7.86226C26.7462 6.48693 28.4398 10.4403 26.0273 11.9751C25.0346 12.6067 22.7124 12.847 19.3602 12.847C18.8541 12.847 18.5707 12.9727 18.7122 13.5984C18.9861 14.8109 18.3501 15.5746 17.0407 14.049Z" fill="url(#paint3_linear_8871_2441)"/>
</g>
<rect x="1.835" y="1.835" width="34.4462" height="34.4462" rx="17.2231" stroke="white" stroke-width="2.33"/>
<g clip-path="url(#clip1_8871_2441)">
<rect x="30.2988" y="3" width="32.1162" height="32.1162" rx="16.0581" fill="#00594C"/>
<path d="M47.5205 8.32053C47.0923 6.44708 49.1228 5.00946 51.2139 5.99639C56.1384 8.32053 53.2808 11.7998 51.5144 11.4251C49.748 11.0504 47.9487 10.194 47.5205 8.32053Z" fill="url(#paint4_linear_8871_2441)"/>
<path d="M48.7125 20.1288C46.4127 21.2337 46.0772 21.1745 41.0046 17.0242C33.3503 10.7615 40.5764 5.03414 48.3378 8.08518C56.7416 11.7785 53.9262 17.6244 48.7125 20.1288Z" fill="url(#paint5_linear_8871_2441)"/>
<path d="M48.9259 24.5177C48.1409 26.2306 47.1416 27.087 46.3566 27.087C45.5716 27.087 44.5723 26.2306 43.7873 24.5177V22.3766C43.7873 22.3766 43.438 22.3873 43.1985 22.3766C40.6944 22.2696 39.8577 18.2414 40.2507 14.2125C40.5384 11.2618 43.0379 15.3111 47.106 12.4741C46.9454 15.5787 48.2836 15.2575 48.8724 14.8828C51.5487 13.6517 51.6023 18.6833 48.9571 18.2934C48.9577 18.3469 48.9473 20.4217 48.9259 24.5177Z" fill="url(#paint6_linear_8871_2441)"/>
<path d="M43.7871 22.3768C44.7506 22.3054 45.9508 21.7666 47.3878 20.7603C46.9474 22.2766 45.7472 23.1723 43.7871 23.4473V22.3768Z" fill="#FF9768"/>
<path d="M42.9022 25.1405C42.9022 25.1405 43.0638 24.0253 43.4425 23.9298C43.8213 23.8343 46.0349 23.8228 46.0369 24.251C46.0369 24.3296 46.1131 25.1717 46.3655 25.1717C46.618 25.1717 46.6828 24.3291 46.6833 24.251C46.6853 23.8228 48.8861 23.8393 49.2776 23.9298C49.6691 24.0204 49.8163 25.1419 49.8163 25.1419C49.8163 25.1419 55.5972 27.864 56.2056 29.0259C56.729 30.0251 57.1215 32.3446 57.3832 35.9844H35.3301C35.5918 32.3446 35.9843 30.0251 36.5077 29.0259C37.1161 27.8645 42.9022 25.1405 42.9022 25.1405Z" fill="url(#paint7_linear_8871_2441)"/>
<path d="M45.9277 32.4399C45.9277 32.3552 45.9528 32.2724 45.9999 32.202C46.047 32.1315 46.1138 32.0767 46.1921 32.0443C46.2703 32.0118 46.3564 32.0034 46.4395 32.0199C46.5226 32.0364 46.5989 32.0772 46.6587 32.1371C46.7186 32.197 46.7594 32.2733 46.7759 32.3563C46.7925 32.4394 46.784 32.5255 46.7516 32.6037C46.7192 32.682 46.6643 32.7489 46.5939 32.7959C46.5234 32.843 46.4406 32.8681 46.356 32.8681C46.2424 32.8681 46.1335 32.823 46.0532 32.7427C45.9728 32.6624 45.9277 32.5534 45.9277 32.4399ZM45.9277 30.2988C45.9277 30.2141 45.9528 30.1313 45.9999 30.0609C46.047 29.9905 46.1138 29.9356 46.1921 29.9032C46.2703 29.8708 46.3564 29.8623 46.4395 29.8788C46.5226 29.8953 46.5989 29.9361 46.6587 29.996C46.7186 30.0559 46.7594 30.1322 46.7759 30.2152C46.7925 30.2983 46.784 30.3844 46.7516 30.4627C46.7192 30.5409 46.6643 30.6078 46.5939 30.6548C46.5234 30.7019 46.4406 30.727 46.356 30.727C46.2424 30.727 46.1335 30.6819 46.0532 30.6016C45.9728 30.5213 45.9277 30.4124 45.9277 30.2988ZM45.9277 28.1577C45.9277 28.073 45.9528 27.9902 45.9999 27.9198C46.047 27.8494 46.1138 27.7945 46.1921 27.7621C46.2703 27.7297 46.3564 27.7212 46.4395 27.7377C46.5226 27.7542 46.5989 27.795 46.6587 27.8549C46.7186 27.9148 46.7594 27.9911 46.7759 28.0742C46.7925 28.1572 46.784 28.2433 46.7516 28.3216C46.7192 28.3998 46.6643 28.4667 46.5939 28.5138C46.5234 28.5608 46.4406 28.5859 46.356 28.5859C46.2424 28.5859 46.1335 28.5408 46.0532 28.4605C45.9728 28.3802 45.9277 28.2713 45.9277 28.1577Z" fill="#664F4D"/>
<path d="M47.4899 11.5032C45.7771 15.7853 46.7406 17.8729 48.0787 20.3887C49.4169 22.9044 47.7576 25.2596 47.7576 25.2596C47.7576 25.2596 49.6845 24.0285 49.6845 21.2986C49.6845 18.5687 47.7576 16.8559 49.3634 14.6077C50.9692 12.3596 49.2028 7.22101 47.4899 11.5032Z" fill="url(#paint8_linear_8871_2441)"/>
</g>
<rect x="29.1338" y="1.835" width="34.4462" height="34.4462" rx="17.2231" stroke="white" stroke-width="2.33"/>
<defs>
<linearGradient id="paint0_linear_8871_2441" x1="19.5112" y1="10.7461" x2="19.5112" y2="27.5151" gradientUnits="userSpaceOnUse">
<stop stop-color="#E6864E"/>
<stop offset="1" stop-color="#EB965E"/>
</linearGradient>
<linearGradient id="paint1_linear_8871_2441" x1="21.6676" y1="20.8258" x2="21.0114" y2="23.3108" gradientUnits="userSpaceOnUse">
<stop stop-color="#E07A3F"/>
<stop offset="1" stop-color="#EB9154"/>
</linearGradient>
<linearGradient id="paint2_linear_8871_2441" x1="19.0574" y1="24.625" x2="19.0574" y2="35.4704" gradientUnits="userSpaceOnUse">
<stop stop-color="#1D0024"/>
<stop offset="1" stop-color="#100014"/>
</linearGradient>
<linearGradient id="paint3_linear_8871_2441" x1="19.9127" y1="6.21143" x2="19.9127" y2="19.0582" gradientUnits="userSpaceOnUse">
<stop stop-color="#1D0024"/>
<stop offset="1" stop-color="#100014"/>
</linearGradient>
<linearGradient id="paint4_linear_8871_2441" x1="50.7106" y1="5.67578" x2="50.7106" y2="11.453" gradientUnits="userSpaceOnUse">
<stop stop-color="#1D0024"/>
<stop offset="1" stop-color="#100014"/>
</linearGradient>
<linearGradient id="paint5_linear_8871_2441" x1="45.709" y1="7.24023" x2="45.709" y2="20.7372" gradientUnits="userSpaceOnUse">
<stop stop-color="#1D0024"/>
<stop offset="1" stop-color="#100014"/>
</linearGradient>
<linearGradient id="paint6_linear_8871_2441" x1="45.5344" y1="12.4741" x2="45.5344" y2="27.087" gradientUnits="userSpaceOnUse">
<stop stop-color="#F7B186"/>
<stop offset="1" stop-color="#FFC299"/>
</linearGradient>
<linearGradient id="paint7_linear_8871_2441" x1="46.3566" y1="35.9844" x2="46.3566" y2="23.8755" gradientUnits="userSpaceOnUse">
<stop stop-color="#FCF2EB"/>
<stop offset="1" stop-color="#FFF9F5"/>
</linearGradient>
<linearGradient id="paint8_linear_8871_2441" x1="48.2823" y1="9.85156" x2="48.2823" y2="25.2596" gradientUnits="userSpaceOnUse">
<stop stop-color="#1D0024"/>
<stop offset="1" stop-color="#100014"/>
</linearGradient>
<clipPath id="clip0_8871_2441">
<rect x="3" y="3" width="32.1162" height="32.1162" rx="16.0581" fill="white"/>
</clipPath>
<clipPath id="clip1_8871_2441">
<rect x="30.2988" y="3" width="32.1162" height="32.1162" rx="16.0581" fill="white"/>
</clipPath>
</defs>
</svg>
