<svg width="55" height="55" viewBox="0 0 55 55" fill="none" xmlns="http://www.w3.org/2000/svg">
<g clip-path="url(#clip0_8871_3490)">
<rect width="55" height="55" rx="27.5" fill="#00594C"/>
<path d="M29.4932 9.11173C28.7599 5.9034 32.2372 3.44142 35.8182 5.13157C44.2516 9.11173 39.3578 15.0701 36.3328 14.4284C33.3078 13.7867 30.2266 12.3201 29.4932 9.11173Z" fill="url(#paint0_linear_8871_3490)"/>
<path d="M31.5342 29.3332C27.5957 31.2254 27.0211 31.124 18.3342 24.0166C5.22591 13.2916 17.6009 3.48323 30.8926 8.70823C45.2842 15.0332 40.4628 25.0445 31.5342 29.3332Z" fill="url(#paint1_linear_8871_3490)"/>
<path d="M31.8997 36.8501C30.5554 39.7834 28.8441 41.2501 27.4997 41.2501C26.1554 41.2501 24.4441 39.7834 23.0997 36.8501V33.1834C23.0997 33.1834 22.5015 33.2018 22.0914 33.1834C17.8031 33.0001 16.3701 26.1018 17.0431 19.2021C17.5359 14.149 21.8164 21.0834 28.7831 16.2251C28.5081 21.5418 30.7997 20.9918 31.8081 20.3501C36.3914 18.2418 36.4831 26.8584 31.9531 26.1907C31.9542 26.2824 31.9364 29.8355 31.8997 36.8501Z" fill="url(#paint2_linear_8871_3490)"/>
<path d="M23.0996 33.1834C24.7496 33.0612 26.805 32.1384 29.2658 30.415C28.5117 33.0119 26.4563 34.5458 23.0996 35.0167V33.1834Z" fill="#FF9768"/>
<path d="M21.5847 37.9164C21.5847 37.9164 21.8614 36.0066 22.51 35.8431C23.1586 35.6795 26.9496 35.6597 26.9529 36.3931C26.9529 36.5276 27.0834 37.9697 27.5157 37.9697C27.948 37.9697 28.0591 36.5269 28.0599 36.3931C28.0634 35.6597 31.8323 35.688 32.5028 35.8431C33.1732 35.9982 33.4253 37.9188 33.4253 37.9188C33.4253 37.9188 43.3253 42.5804 44.3672 44.5703C45.2634 46.2814 45.9357 50.2536 46.3839 56.4869H8.61719C9.06538 50.2536 9.7376 46.2814 10.6339 44.5703C11.6757 42.5813 21.5847 37.9164 21.5847 37.9164Z" fill="url(#paint3_linear_8871_3490)"/>
<path d="M26.7676 50.4168C26.7676 50.2717 26.8106 50.1299 26.8912 50.0093C26.9717 49.8888 27.0863 49.7948 27.2203 49.7393C27.3543 49.6837 27.5017 49.6692 27.644 49.6975C27.7862 49.7258 27.9169 49.7957 28.0195 49.8982C28.122 50.0008 28.1919 50.1314 28.2202 50.2737C28.2484 50.416 28.2339 50.5634 28.1784 50.6974C28.1229 50.8314 28.0289 50.9459 27.9083 51.0265C27.7877 51.1071 27.646 51.1501 27.5009 51.1501C27.3064 51.1501 27.1199 51.0728 26.9824 50.9353C26.8448 50.7978 26.7676 50.6113 26.7676 50.4168ZM26.7676 46.7501C26.7676 46.6051 26.8106 46.4633 26.8912 46.3427C26.9717 46.2221 27.0863 46.1281 27.2203 46.0726C27.3543 46.0171 27.5017 46.0026 27.644 46.0309C27.7862 46.0592 27.9169 46.129 28.0195 46.2316C28.122 46.3341 28.1919 46.4648 28.2202 46.607C28.2484 46.7493 28.2339 46.8967 28.1784 47.0307C28.1229 47.1647 28.0289 47.2793 27.9083 47.3598C27.7877 47.4404 27.646 47.4834 27.5009 47.4834C27.3064 47.4834 27.1199 47.4062 26.9824 47.2686C26.8448 47.1311 26.7676 46.9446 26.7676 46.7501ZM26.7676 43.0834C26.7676 42.9384 26.8106 42.7966 26.8912 42.676C26.9717 42.5554 27.0863 42.4614 27.2203 42.4059C27.3543 42.3504 27.5017 42.3359 27.644 42.3642C27.7862 42.3925 27.9169 42.4623 28.0195 42.5649C28.122 42.6674 28.1919 42.7981 28.2202 42.9404C28.2484 43.0826 28.2339 43.2301 28.1784 43.3641C28.1229 43.4981 28.0289 43.6126 27.9083 43.6932C27.7877 43.7738 27.646 43.8168 27.5009 43.8168C27.3064 43.8168 27.1199 43.7395 26.9824 43.602C26.8448 43.4644 26.7676 43.2779 26.7676 43.0834Z" fill="#664F4D"/>
<path d="M29.4421 14.5618C26.5087 21.8952 28.1587 25.4702 30.4504 29.7785C32.7421 34.0868 29.9004 38.1202 29.9004 38.1202C29.9004 38.1202 33.2004 36.0118 33.2004 31.3368C33.2004 26.6618 29.9004 23.7285 32.6504 19.8785C35.4004 16.0285 32.3754 7.2285 29.4421 14.5618Z" fill="url(#paint4_linear_8871_3490)"/>
</g>
<defs>
<linearGradient id="paint0_linear_8871_3490" x1="34.9563" y1="4.58252" x2="34.9563" y2="14.4762" gradientUnits="userSpaceOnUse">
<stop stop-color="#1D0024"/>
<stop offset="1" stop-color="#100014"/>
</linearGradient>
<linearGradient id="paint1_linear_8871_3490" x1="26.3907" y1="7.26123" x2="26.3907" y2="30.3752" gradientUnits="userSpaceOnUse">
<stop stop-color="#1D0024"/>
<stop offset="1" stop-color="#100014"/>
</linearGradient>
<linearGradient id="paint2_linear_8871_3490" x1="26.0917" y1="16.2251" x2="26.0917" y2="41.2501" gradientUnits="userSpaceOnUse">
<stop stop-color="#F7B186"/>
<stop offset="1" stop-color="#FFC299"/>
</linearGradient>
<linearGradient id="paint3_linear_8871_3490" x1="27.5005" y1="56.4869" x2="27.5005" y2="35.75" gradientUnits="userSpaceOnUse">
<stop stop-color="#FCF2EB"/>
<stop offset="1" stop-color="#FFF9F5"/>
</linearGradient>
<linearGradient id="paint4_linear_8871_3490" x1="30.7991" y1="11.7334" x2="30.7991" y2="38.1202" gradientUnits="userSpaceOnUse">
<stop stop-color="#1D0024"/>
<stop offset="1" stop-color="#100014"/>
</linearGradient>
<clipPath id="clip0_8871_3490">
<rect width="55" height="55" rx="27.5" fill="white"/>
</clipPath>
</defs>
</svg>
