<?xml version="1.0" encoding="UTF-8"?>
<svg id="Layer_1" data-name="Layer 1" xmlns="http://www.w3.org/2000/svg" viewBox="0 0 1342.68 1309.44">
  <defs>
    <style>
      .cls-1 {
        fill: #fde05d;
      }

      .cls-2 {
        fill: #fff;
      }

      .cls-3 {
        fill: #00594c;
      }
    </style>
  </defs>
  <path class="cls-3" d="M447.56,655.58c0-45.65,9.4-84.75,28.2-117.29,18.8-32.55,45-57.54,78.62-74.97,33.61-17.44,72.6-26.15,116.96-26.15,44.35,0,83.34,8.72,116.96,26.15,33.61,17.44,59.82,42.43,78.62,74.97,18.8,32.54,28.2,71.64,28.2,117.29,0,45.65-9.4,84.8-28.2,117.45-18.8,32.65-45.01,57.7-78.62,75.13-33.62,17.44-72.61,26.15-116.96,26.15-44.36,0-83.35-8.72-116.96-26.15-33.62-17.44-59.83-42.48-78.62-75.13-18.8-32.65-28.2-71.8-28.2-117.45Z"/>
  <path class="cls-2" d="M682.18,577.02c12.03-4.48,51.46-19.16,95.68,.61,30.32,13.56,74.14,48.35,71.09,86.15-1.41,17.52-12.37,29.17-14.25,31.11-19.15,19.73-48.08,11.64-60.8,8.09-20.63-5.77-33.23-17.81-44.9-28.96-5.86-5.6-17.47-16.69-15.24-22.43,1.98-5.12,14.05-3.61,16.77-3.27,9.92,1.24,14.93,5.26,24.46,10.25,14.88,7.78,32.44,16.95,43.63,8.82,.88-.64,5.63-4.09,7.02-10.28,3.54-15.83-17.91-36.23-34.4-45.75-24.39-14.07-49.05-10.77-60.13-9.13-30.62,4.55-57.27,21.45-73.68,11.8-1.38-.81-2.92-1.95-3.27-3.78-1.79-9.22,28.39-25.92,48.02-33.22Z"/>
  <path class="cls-2" d="M660.51,734.45c-12.03,4.48-51.46,19.16-95.68-.61-30.32-13.56-74.14-48.35-71.09-86.15,1.41-17.52,12.37-29.17,14.25-31.11,19.15-19.73,48.08-11.64,60.8-8.09,20.63,5.77,33.23,17.81,44.9,28.96,5.86,5.6,17.47,16.69,15.24,22.43-1.98,5.12-14.05,3.61-16.77,3.27-9.92-1.24-14.93-5.26-24.46-10.25-14.88-7.78-32.44-16.95-43.63-8.82-.88,.64-5.63,4.09-7.02,10.28-3.54,15.83,17.91,36.23,34.4,45.75,24.39,14.07,49.05,10.77,60.13,9.13,30.62-4.55,57.27-21.45,73.68-11.8,1.38,.81,2.92,1.95,3.27,3.78,1.79,9.22-28.39,25.92-48.02,33.22Z"/>
  <ellipse class="cls-1" cx="671.29" cy="655.82" rx="36.94" ry="17.24" transform="translate(-233.33 406.03) rotate(-28.9)"/>
</svg>